<?xml version="1.0" encoding="UTF-8"?>
<svg id="Layer_1" data-name="Layer 1" xmlns="http://www.w3.org/2000/svg" xmlns:xlink="http://www.w3.org/1999/xlink" viewBox="0 0 1920 1077.66">
  <defs>
    <style>
      .cls-1 {
        fill: #fff;
      }

      .cls-2, .cls-3 {
        fill: #404041;
      }

      .cls-4 {
        filter: url(#drop-shadow-1);
      }

      .cls-5 {
        fill: url(#radial-gradient);
      }

      .cls-6 {
        fill: none;
      }

      .cls-6, .cls-3 {
        stroke: #fff;
        stroke-miterlimit: 10;
        stroke-width: 1.98px;
      }
    </style>
    <radialGradient id="radial-gradient" cx="960" cy="538.83" fx="960" fy="538.83" r="954.92" gradientUnits="userSpaceOnUse">
      <stop offset="0" stop-color="#333"/>
      <stop offset="1" stop-color="#0d0d0d"/>
    </radialGradient>
    <filter id="drop-shadow-1" filterUnits="userSpaceOnUse">
      <feOffset dx="-10" dy="15"/>
      <feGaussianBlur result="blur" stdDeviation="25"/>
      <feFlood flood-color="#191919" flood-opacity=".69"/>
      <feComposite in2="blur" operator="in"/>
      <feComposite in="SourceGraphic"/>
    </filter>
  </defs>
  <g id="bg-zoom">
    <path class="cls-5" d="M0,0V1077.66H1920V0H0ZM800,385.44l-31.47-69.58-122.81,13.74-16.34,108,8.29,43.96,57.35,9.75,68.02-9.27,19.74-32.29-16.55,127.1-11.06-40.42-62.73-10.14-52.01,10.22-18.42,175.05,16.36,26.07,77.35,4.49-50.09,7.12,28.73,21.69-105.73-12.06-78.67,11.36,26.36-21.88-34.26-2.53,59.6-14.13,12.65-128.89-9.16-295.87-94.81-9.27,61.17-9.57-39.74-11.38,191.03,10.86,114.34-10.08,23.13,104.07-22.09-27.07,1.88,30.98h-.04Zm570.01,354.62l-35.1-30.7-10.45,57.29-189.74-226.61-135.65-143.95-10.56,182.47,12.89,155.87,67.87,10.18-51,3.22,31.25,25.48-109.26-21.74-76.5-9.96,81.5-6.89-13.58-400.45-30.18-28.17-55.24-4.66,33.93-9.61-38.16-13.93,173.31,15.93,119.19,178.59,173,178.98-1.21-347.94-94.61-8.37,70.74-7.08-46.96-18.19,193.08,25.22-61.22,8.2-21.42,206.27,24.11,230.58h-.01Z"/>
  </g>
  <g id="begin-fade" class="cls-4">
    <polygon class="cls-3" points="1428.55 295.03 1367.31 303.23 1345.89 509.49 1370.01 740.07 1334.91 709.37 1324.45 766.66 1134.71 540.05 999.06 396.1 988.5 578.56 1001.38 734.44 1069.24 744.62 1018.24 747.84 1049.48 773.3 940.22 751.57 863.72 741.61 945.21 734.72 931.63 334.28 901.45 306.1 846.21 301.45 880.14 291.82 841.98 277.91 1015.3 293.83 1134.49 472.42 1307.49 651.38 1306.28 303.45 1211.67 295.08 1282.41 288 1235.47 269.81 1428.55 295.03"/>
    <g>
      <polygon class="cls-2" points="768.53 315.87 800 385.44 798.11 354.46 820.21 381.53 797.08 277.46 682.74 287.54 491.72 276.69 531.46 288.06 470.29 297.63 565.09 306.91 574.26 602.79 561.62 731.69 502.02 745.81 536.28 748.34 509.93 770.23 588.6 758.86 694.33 770.93 665.59 749.25 715.69 742.13 638.34 737.64 621.99 711.57 640.4 536.52 692.42 526.29 755.16 536.43 766.21 576.85 782.78 449.75 763.02 482.03 695 491.32 637.65 481.57 629.37 437.61 645.72 329.61 768.53 315.87"/>
      <polygon class="cls-6" points="768.53 315.87 800 385.44 798.11 354.46 820.21 381.53 797.08 277.46 682.74 287.54 491.72 276.69 531.46 288.06 470.29 297.63 565.09 306.91 574.26 602.79 561.62 731.69 502.02 745.81 536.28 748.34 509.93 770.23 588.6 758.86 694.33 770.93 665.59 749.25 715.69 742.13 638.34 737.64 621.99 711.57 640.4 536.52 692.42 526.29 755.16 536.43 766.21 576.85 782.78 449.75 763.02 482.03 695 491.32 637.65 481.57 629.37 437.61 645.72 329.61 768.53 315.87"/>
    </g>
    <polygon class="cls-1" points="632.4 327.22 632.54 489.57 762.35 489.57 774.57 442.57 774.57 579.72 762.77 530.47 633.06 533 629.68 738.67 705.97 753.08 488.73 763.52 573.05 738.59 576.51 310.61 469.02 283.95 806.94 286.27 811.03 390.17 779.84 323.55 632.4 327.22"/>
    <polygon class="cls-1" points="844.7 286.27 993.78 286.27 1312.05 668.51 1314.84 301.33 1219.58 280.47 1434.59 285.1 1360.2 304.29 1351.8 774.86 991.35 381.66 992.25 735.7 1085.22 760.04 861.41 750.76 946.01 732.77 939.23 326.16 913.1 304.78 844.7 286.27"/>
  </g>
</svg>