<?xml version="1.0" encoding="UTF-8"?><svg id="a" xmlns="http://www.w3.org/2000/svg" width="900" height="900" viewBox="0 0 900 900"><defs><style>.b{fill:#fff;}.c,.d{stroke:#fff;stroke-miterlimit:10;stroke-width:1.98px;}.c,.e{fill:#414042;}.d{fill:none;}</style></defs><g><path class="e" d="M0,0V900H900V0H0ZM330.69,327.3l-27.14-60-105.92,11.85-14.1,93.14,7.15,37.91,49.46,8.41,58.66-8,17.03-27.85-14.28,109.62-9.54-34.86-54.11-8.74-44.86,8.82-15.88,150.97,14.1,22.49,66.71,3.87-43.2,6.14,24.78,18.7-91.19-10.41-67.85,9.8,22.73-18.87-29.55-2.18,51.4-12.19,10.91-111.17-7.9-255.18-81.77-8,52.76-8.26-34.28-9.81,164.75,9.37,98.61-8.69,19.95,89.75-19.06-23.35,1.63,26.72Zm491.6,305.85l-30.27-26.49-9.01,49.42-163.65-195.44-116.99-124.15-9.11,157.36,11.12,134.43,58.53,8.78-43.99,2.77,26.95,21.97-94.23-18.74-65.98-8.6,70.29-5.94-11.71-345.36-26.04-24.29-47.64-4.02,29.27-8.29-32.91-12.01,149.47,13.74,102.8,154.02,149.2,154.35-1.04-300.08-81.6-7.22,61.02-6.11-40.49-15.68,166.52,21.75-52.81,7.07-18.47,177.9,20.79,198.86Z"/><polygon class="c" points="872.78 249.32 819.97 256.39 801.5 434.29 822.29 633.15 792.02 606.66 783.01 656.08 619.36 460.64 502.37 336.5 493.26 493.86 504.37 628.3 562.9 637.07 518.91 639.85 545.86 661.81 451.63 643.07 385.64 634.47 455.93 628.54 444.22 283.17 418.19 258.88 370.55 254.86 399.81 246.57 366.9 234.56 516.37 248.3 619.17 402.31 768.37 556.67 767.33 256.59 685.73 249.37 746.75 243.26 706.26 227.58 872.78 249.32"/><g><polygon class="e" points="303.56 267.3 330.69 327.3 329.07 300.58 348.12 323.93 328.18 234.18 229.57 242.87 64.81 233.5 99.09 243.31 46.33 251.57 128.1 259.58 136.01 514.75 125.1 625.92 73.7 638.11 103.25 640.29 80.52 659.16 148.37 649.36 239.56 659.77 214.78 641.06 257.98 634.93 191.27 631.06 177.17 608.57 193.05 457.6 237.91 448.78 292.02 457.52 301.56 492.39 315.83 382.76 298.8 410.61 240.14 418.61 190.68 410.2 183.54 372.29 197.64 279.15 303.56 267.3"/><polygon class="d" points="303.56 267.3 330.69 327.3 329.07 300.58 348.12 323.93 328.18 234.18 229.57 242.87 64.81 233.5 99.09 243.31 46.33 251.57 128.1 259.58 136.01 514.75 125.1 625.92 73.7 638.11 103.25 640.29 80.52 659.16 148.37 649.36 239.56 659.77 214.78 641.06 257.98 634.93 191.27 631.06 177.17 608.57 193.05 457.6 237.91 448.78 292.02 457.52 301.56 492.39 315.83 382.76 298.8 410.61 240.14 418.61 190.68 410.2 183.54 372.29 197.64 279.15 303.56 267.3"/></g></g><g><polygon class="b" points="186.15 277.09 186.28 417.11 298.22 417.11 308.76 376.57 308.76 494.86 298.59 452.38 186.72 454.56 183.8 631.93 249.6 644.37 62.24 653.37 134.95 631.87 137.95 262.76 45.24 239.77 336.67 241.77 340.2 331.38 313.31 273.93 186.15 277.09"/><polygon class="b" points="369.25 241.77 497.81 241.77 772.31 571.43 774.72 254.76 692.56 236.77 878 240.77 813.84 257.31 806.59 663.15 495.72 324.04 496.49 629.38 576.69 650.37 383.66 642.37 456.61 626.85 450.78 276.17 428.23 257.74 369.25 241.77"/></g></svg>